<svg width="33" height="29" viewBox="0 0 33 29" fill="none" xmlns="http://www.w3.org/2000/svg">
<path d="M5.5 22.9583V20.5417H8.25V12.0833C8.25 10.4118 8.82292 8.9316 9.96875 7.64271C11.1146 6.33368 12.6042 5.47778 14.4375 5.075V4.22917C14.4375 3.7257 14.6323 3.30278 15.0219 2.96042C15.4344 2.59792 15.9271 2.41667 16.5 2.41667C17.0729 2.41667 17.5542 2.59792 17.9438 2.96042C18.3563 3.30278 18.5625 3.7257 18.5625 4.22917V5.075C20.3958 5.47778 21.8854 6.33368 23.0312 7.64271C24.1771 8.9316 24.75 10.4118 24.75 12.0833V20.5417H27.5V22.9583H5.5ZM16.5 26.5833C15.7438 26.5833 15.0906 26.3517 14.5406 25.8885C14.0135 25.4052 13.75 24.8313 13.75 24.1667H19.25C19.25 24.8313 18.975 25.4052 18.425 25.8885C17.8979 26.3517 17.2563 26.5833 16.5 26.5833ZM11 20.5417H22V12.0833C22 10.7542 21.4615 9.61632 20.3844 8.6698C19.3073 7.72327 18.0125 7.25 16.5 7.25C14.9875 7.25 13.6927 7.72327 12.6156 8.6698C11.5385 9.61632 11 10.7542 11 12.0833V20.5417Z" fill="#1D1B20"/>
</svg>
